<?xml version="1.0" encoding="UTF-8" standalone="no"?>
<!-- Created with Inkscape (http://www.inkscape.org/) -->

<svg
   width="45.455227mm"
   height="9.7658529mm"
   viewBox="0 0 45.455227 9.7658529"
   version="1.1"
   id="svg1"
   xml:space="preserve"
   xmlns="http://www.w3.org/2000/svg"
   xmlns:svg="http://www.w3.org/2000/svg"><defs
     id="defs1" /><g
     id="layer1"
     transform="translate(-58.651853,-120.828)"><text
       xml:space="preserve"
       style="font-style:normal;font-variant:normal;font-weight:bold;font-stretch:normal;font-size:8.98025px;font-family:Futura;-inkscape-font-specification:'Futura Bold';text-align:start;writing-mode:lr-tb;direction:ltr;text-anchor:start;fill:#225500;stroke-width:0;paint-order:markers stroke fill"
       x="57.533188"
       y="129.55812"
       id="text1"
       transform="scale(1.0096728,0.99041987)"><tspan
         id="tspan1"
         style="font-style:normal;font-variant:normal;font-weight:bold;font-stretch:normal;font-family:Futura;-inkscape-font-specification:'Futura Bold';fill:#225500;stroke-width:0"
         x="57.533188"
         y="129.55812">pd ž<tspan
   style="font-style:normal;font-variant:normal;font-weight:bold;font-stretch:normal;font-family:Futura;-inkscape-font-specification:'Futura Bold'"
   id="tspan4">use</tspan></tspan></text><path
       d="m 98.546898,123.81951 c -0.562947,0 -1.032991,0.20053 -1.410284,0.60146 -0.377291,0.40094 -0.566078,0.90051 -0.566078,1.49873 0,0.29274 0.04624,0.57894 0.139062,0.85895 0.09284,0.28002 0.256844,0.58726 0.490406,0.92135 0.09971,0.14264 0.217265,0.29465 0.346428,0.45307 h 0.980319 c -0.269224,-0.29394 -0.491267,-0.55689 -0.662391,-0.78672 -0.215595,-0.28956 -0.365286,-0.54752 -0.449128,-0.77344 -0.08383,-0.22592 -0.125304,-0.45046 -0.125304,-0.67321 0,-0.38184 0.119161,-0.69971 0.358713,-0.95427 0.23955,-0.25456 0.538928,-0.3823 0.898257,-0.3823 0.281476,0 0.542248,0.0844 0.781798,0.25307 0.239549,0.16865 0.404016,0.38377 0.493847,0.64469 h 0.682527 c 0.0899,-0.26092 0.25478,-0.47604 0.49434,-0.64469 0.23955,-0.16864 0.49984,-0.25307 0.7813,-0.25307 0.35934,0 0.65873,0.12774 0.89827,0.3823 0.23955,0.25456 0.35969,0.57243 0.35969,0.95427 0,0.22275 -0.0419,0.44729 -0.12579,0.67321 -0.0839,0.22592 -0.23353,0.48388 -0.44913,0.77344 -0.17112,0.22983 -0.39365,0.49278 -0.66289,0.78672 h 0.98131 c 0.12916,-0.15842 0.24672,-0.31043 0.34643,-0.45307 0.23355,-0.33409 0.39659,-0.64133 0.48942,-0.92135 0.0928,-0.28001 0.13906,-0.56621 0.13906,-0.85895 0,-0.59822 -0.1883,-1.09779 -0.56559,-1.49873 -0.37729,-0.40093 -0.84783,-0.60146 -1.41078,-0.60146 -0.3114,0 -0.60744,0.0703 -0.88891,0.21032 -0.28147,0.14001 -0.52413,0.33756 -0.72775,0.59212 -0.20361,-0.25456 -0.446267,-0.45211 -0.72774,-0.59212 -0.281467,-0.14001 -0.577993,-0.21032 -0.889412,-0.21032 z"
       style="fill:#f20505;stroke:#f20505;stroke-width:0.7"
       id="path2" /></g></svg>
