<?xml version="1.0" encoding="UTF-8" standalone="no"?>
<svg
   height="512"
   style="clip-rule:evenodd;fill-rule:evenodd;stroke-linejoin:round;stroke-miterlimit:2"
   version="1.1"
   viewBox="0 0 512 512"
   width="512"
   xml:space="preserve"
   id="svg1"
   xmlns="http://www.w3.org/2000/svg"
   xmlns:svg="http://www.w3.org/2000/svg"><defs
     id="defs1" /><path
     d="M 449.446,0 C 483.971,0 512,28.03 512,62.554 V 449.446 C 512,483.97 483.97,512 449.446,512 H 62.554 C 28.03,512 0,483.97 0,449.446 V 62.554 C 0,28.03 28.029,0 62.554,0 Z M 256,81 c -47.527,0 -53.487,0.201 -72.152,1.053 -18.627,0.85 -31.348,3.808 -42.48,8.135 -11.508,4.472 -21.267,10.456 -30.996,20.184 -9.729,9.729 -15.713,19.489 -20.185,30.996 -4.326,11.132 -7.284,23.853 -8.135,42.48 C 81.201,202.513 81,208.473 81,256 c 0,47.527 0.201,53.487 1.052,72.152 0.851,18.627 3.809,31.348 8.135,42.48 4.472,11.507 10.456,21.267 20.185,30.996 9.729,9.729 19.488,15.713 30.996,20.185 11.132,4.326 23.853,7.284 42.48,8.134 18.665,0.852 24.625,1.053 72.152,1.053 47.527,0 53.487,-0.201 72.152,-1.053 18.627,-0.85 31.348,-3.808 42.48,-8.134 11.507,-4.472 21.267,-10.456 30.996,-20.185 9.729,-9.729 15.713,-19.489 20.185,-30.996 4.326,-11.132 7.284,-23.853 8.134,-42.48 C 430.799,309.487 431,303.527 431,256 c 0,-47.527 -0.201,-53.487 -1.053,-72.152 -0.85,-18.627 -3.808,-31.348 -8.134,-42.48 -4.472,-11.507 -10.456,-21.267 -20.185,-30.996 C 391.899,100.644 382.139,94.66 370.632,90.188 359.5,85.861 346.779,82.903 328.152,82.053 309.487,81.201 303.527,81 256,81 Z m 0,31.532 c 46.727,0 52.262,0.178 70.715,1.02 17.062,0.779 26.328,3.63 32.495,6.025 8.169,3.175 13.998,6.968 20.122,13.091 6.124,6.124 9.916,11.954 13.091,20.122 2.396,6.167 5.247,15.433 6.025,32.495 0.842,18.453 1.021,23.988 1.021,70.715 0,46.727 -0.179,52.262 -1.021,70.715 -0.778,17.062 -3.629,26.328 -6.025,32.495 -3.175,8.169 -6.967,13.998 -13.091,20.122 -6.124,6.124 -11.953,9.916 -20.122,13.091 -6.167,2.396 -15.433,5.247 -32.495,6.025 -18.45,0.842 -23.985,1.021 -70.715,1.021 -46.73,0 -52.264,-0.179 -70.715,-1.021 -17.062,-0.778 -26.328,-3.629 -32.495,-6.025 -8.169,-3.175 -13.998,-6.967 -20.122,-13.091 -6.124,-6.124 -9.917,-11.953 -13.091,-20.122 -2.396,-6.167 -5.247,-15.433 -6.026,-32.495 -0.842,-18.453 -1.02,-23.988 -1.02,-70.715 0,-46.727 0.178,-52.262 1.02,-70.715 0.779,-17.062 3.63,-26.328 6.026,-32.495 3.174,-8.168 6.967,-13.998 13.091,-20.122 6.124,-6.123 11.953,-9.916 20.122,-13.091 6.167,-2.395 15.433,-5.246 32.495,-6.025 18.453,-0.842 23.988,-1.02 70.715,-1.02 z m 0,53.603 c -49.631,0 -89.865,40.234 -89.865,89.865 0,49.631 40.234,89.865 89.865,89.865 49.631,0 89.865,-40.234 89.865,-89.865 0,-49.631 -40.234,-89.865 -89.865,-89.865 z m 0,148.198 c -32.217,0 -58.333,-26.116 -58.333,-58.333 0,-32.217 26.116,-58.333 58.333,-58.333 32.217,0 58.333,26.116 58.333,58.333 0,32.217 -26.116,58.333 -58.333,58.333 z M 370.416,162.585 c 0,11.598 -9.403,20.999 -21.001,20.999 -11.597,0 -20.999,-9.401 -20.999,-20.999 0,-11.598 9.402,-21 20.999,-21 11.598,0 21.001,9.402 21.001,21 z"
     id="path1"
     style="fill:#e0e0e0;fill-opacity:1;stroke:none;stroke-opacity:1" /></svg>
